<mxfile host="app.diagrams.net" modified="2022-05-12T07:15:01.239Z" agent="5.0 (Windows NT 10.0; Win64; x64) AppleWebKit/537.36 (KHTML, like Gecko) Chrome/81.0.4044.92 Safari/537.36" etag="pJGseMXx_E3qZPxPymSK" version="18.0.3" type="github">
  <diagram id="C5RBs43oDa-KdzZeNtuy" name="Page-1">
    <mxGraphModel dx="1875" dy="812" grid="1" gridSize="10" guides="1" tooltips="1" connect="1" arrows="1" fold="1" page="1" pageScale="1" pageWidth="827" pageHeight="1169" math="0" shadow="0">
      <root>
        <mxCell id="WIyWlLk6GJQsqaUBKTNV-0" />
        <mxCell id="WIyWlLk6GJQsqaUBKTNV-1" parent="WIyWlLk6GJQsqaUBKTNV-0" />
        <mxCell id="lFaUMtjXurxVcKm3GQ7_-0" value="&lt;b&gt;&lt;font style=&quot;font-size: 18px;&quot;&gt;PILE&lt;/font&gt;&lt;/b&gt;" style="rounded=1;whiteSpace=wrap;html=1;fontSize=12;glass=0;strokeWidth=1;shadow=0;" vertex="1" parent="WIyWlLk6GJQsqaUBKTNV-1">
          <mxGeometry x="120" y="560" width="120" height="230" as="geometry" />
        </mxCell>
        <mxCell id="lFaUMtjXurxVcKm3GQ7_-5" value="&lt;b&gt;&lt;font style=&quot;font-size: 18px;&quot;&gt;CPO&lt;/font&gt;&lt;/b&gt;" style="rounded=1;whiteSpace=wrap;html=1;fontSize=12;glass=0;strokeWidth=1;shadow=0;" vertex="1" parent="WIyWlLk6GJQsqaUBKTNV-1">
          <mxGeometry x="540" y="560" width="120" height="230" as="geometry" />
        </mxCell>
        <mxCell id="lFaUMtjXurxVcKm3GQ7_-6" value="" style="endArrow=classic;html=1;rounded=0;fontSize=14;entryX=0;entryY=0.25;entryDx=0;entryDy=0;exitX=1;exitY=0.25;exitDx=0;exitDy=0;" edge="1" parent="WIyWlLk6GJQsqaUBKTNV-1" source="lFaUMtjXurxVcKm3GQ7_-0" target="lFaUMtjXurxVcKm3GQ7_-5">
          <mxGeometry width="50" height="50" relative="1" as="geometry">
            <mxPoint x="240" y="600" as="sourcePoint" />
            <mxPoint x="540" y="600" as="targetPoint" />
          </mxGeometry>
        </mxCell>
        <mxCell id="lFaUMtjXurxVcKm3GQ7_-7" value="" style="endArrow=classic;html=1;rounded=0;fontSize=14;exitX=1;exitY=0.25;exitDx=0;exitDy=0;entryX=-0.01;entryY=0.302;entryDx=0;entryDy=0;entryPerimeter=0;" edge="1" parent="WIyWlLk6GJQsqaUBKTNV-1" source="lFaUMtjXurxVcKm3GQ7_-5" target="lFaUMtjXurxVcKm3GQ7_-8">
          <mxGeometry width="50" height="50" relative="1" as="geometry">
            <mxPoint x="700" y="590" as="sourcePoint" />
            <mxPoint x="960" y="618" as="targetPoint" />
          </mxGeometry>
        </mxCell>
        <mxCell id="lFaUMtjXurxVcKm3GQ7_-8" value="&lt;b&gt;&lt;font style=&quot;font-size: 18px;&quot;&gt;HUBJECT&lt;/font&gt;&lt;/b&gt;" style="rounded=1;whiteSpace=wrap;html=1;fontSize=12;glass=0;strokeWidth=1;shadow=0;" vertex="1" parent="WIyWlLk6GJQsqaUBKTNV-1">
          <mxGeometry x="960" y="550" width="120" height="230" as="geometry" />
        </mxCell>
        <mxCell id="lFaUMtjXurxVcKm3GQ7_-9" value="CSR(Certificate&amp;nbsp;&lt;span style=&quot;text-align: left; background-color: initial;&quot;&gt;Certificate Signing Request)&lt;/span&gt;" style="text;html=1;resizable=0;autosize=1;align=center;verticalAlign=middle;points=[];fillColor=none;strokeColor=none;rounded=0;fontSize=14;" vertex="1" parent="WIyWlLk6GJQsqaUBKTNV-1">
          <mxGeometry x="240" y="575" width="290" height="20" as="geometry" />
        </mxCell>
        <mxCell id="lFaUMtjXurxVcKm3GQ7_-11" value="SimpleEncroll" style="text;html=1;resizable=0;autosize=1;align=center;verticalAlign=middle;points=[];fillColor=none;strokeColor=none;rounded=0;fontSize=14;" vertex="1" parent="WIyWlLk6GJQsqaUBKTNV-1">
          <mxGeometry x="755" y="575" width="100" height="20" as="geometry" />
        </mxCell>
      </root>
    </mxGraphModel>
  </diagram>
</mxfile>
